<svg width="35" height="35" viewBox="0 0 35 35" fill="none" xmlns="http://www.w3.org/2000/svg">
<path d="M20.5535 12.5568H22.0013V10.1078C21.3004 10.0349 20.596 9.99896 19.8913 10C17.7966 10 16.3642 11.2784 16.3642 13.6195V15.6372H14V18.3787H16.3642V25.402H19.1982V18.3787H21.5547L21.9089 15.6372H19.1982V13.889C19.1982 13.0804 19.4138 12.5568 20.5535 12.5568Z" fill="#1A1B1F"/>
<path d="M34.5 17.5C34.5 26.8888 26.8888 34.5 17.5 34.5C8.11116 34.5 0.5 26.8888 0.5 17.5C0.5 8.11116 8.11116 0.5 17.5 0.5C26.8888 0.5 34.5 8.11116 34.5 17.5Z" stroke="#E4EBF3"/>
</svg>
