<svg width="35" height="35" viewBox="0 0 35 35" fill="none" xmlns="http://www.w3.org/2000/svg">
<path d="M18.701 24.8618H15.6206V15.6206H18.701V17.1608C19.3576 16.3254 20.3533 15.8274 21.4156 15.8031C23.3259 15.8137 24.8673 17.3682 24.8618 19.2786V24.8618H21.7814V19.6636C21.6582 18.8031 20.9202 18.1647 20.051 18.1665C19.6708 18.1786 19.3119 18.345 19.0571 18.6275C18.8024 18.9101 18.6738 19.2842 18.701 19.6636V24.8618ZM14.0804 24.8618H11V15.6206H14.0804V24.8618ZM12.5402 14.0804C11.6896 14.0804 11 13.3908 11 12.5402C11 11.6896 11.6896 11 12.5402 11C13.3908 11 14.0804 11.6896 14.0804 12.5402C14.0804 12.9487 13.9181 13.3404 13.6293 13.6293C13.3404 13.9181 12.9487 14.0804 12.5402 14.0804Z" fill="#1A1B1F"/>
<path d="M34.5 17.5C34.5 26.8888 26.8888 34.5 17.5 34.5C8.11116 34.5 0.5 26.8888 0.5 17.5C0.5 8.11116 8.11116 0.5 17.5 0.5C26.8888 0.5 34.5 8.11116 34.5 17.5Z" stroke="#E4EBF3"/>
</svg>
