<svg width="35" height="35" viewBox="0 0 35 35" fill="none" xmlns="http://www.w3.org/2000/svg">
<path d="M25.402 13.5022C24.8231 13.7533 24.211 13.9193 23.5846 13.995C24.2454 13.6002 24.7407 12.9791 24.9784 12.2469C24.3574 12.6166 23.6776 12.8771 22.9685 13.017C22.4945 12.503 21.8634 12.1609 21.174 12.0442C20.4846 11.9276 19.7761 12.0431 19.1594 12.3726C18.5427 12.702 18.0529 13.2269 17.7666 13.8647C17.4804 14.5026 17.414 15.2175 17.5778 15.8972C16.3221 15.8337 15.0938 15.5067 13.9727 14.9375C12.8516 14.3683 11.8628 13.5697 11.0704 12.5934C10.7925 13.0787 10.6465 13.6283 10.6469 14.1875C10.6459 14.7069 10.7733 15.2184 11.0179 15.6766C11.2624 16.1348 11.6165 16.5253 12.0485 16.8136C11.5463 16.7999 11.0549 16.6652 10.6161 16.4208V16.4593C10.6198 17.187 10.8748 17.891 11.3379 18.4523C11.801 19.0136 12.4437 19.3978 13.1574 19.5397C12.8827 19.6233 12.5974 19.6674 12.3103 19.6707C12.1115 19.6683 11.9133 19.6503 11.7173 19.6167C11.9206 20.2427 12.3139 20.7897 12.8425 21.1817C13.3711 21.5737 14.0088 21.7912 14.6668 21.8038C13.5557 22.6781 12.1839 23.1552 10.7701 23.1592C10.5127 23.16 10.2555 23.1446 10 23.113C11.4435 24.045 13.1257 24.5398 14.8439 24.5377C16.0296 24.55 17.2059 24.3259 18.3041 23.8785C19.4022 23.4312 20.4002 22.7694 21.2398 21.932C22.0793 21.0947 22.7436 20.0984 23.1938 19.0014C23.644 17.9044 23.8711 16.7287 23.8618 15.5429C23.8618 15.412 23.8618 15.2734 23.8618 15.1348C24.4661 14.6841 24.9873 14.1317 25.402 13.5022V13.5022Z" fill="#1A1B1F"/>
<path d="M34.5 17.5C34.5 26.8888 26.8888 34.5 17.5 34.5C8.11116 34.5 0.5 26.8888 0.5 17.5C0.5 8.11116 8.11116 0.5 17.5 0.5C26.8888 0.5 34.5 8.11116 34.5 17.5Z" stroke="#E4EBF3"/>
</svg>
